<svg width="80" height="80" viewBox="0 0 80 80" fill="none" xmlns="http://www.w3.org/2000/svg">
<path d="M40 6.6665C52.8867 6.6665 63.3334 17.1132 63.3334 29.9998C63.3334 36.3565 60.7914 42.1195 56.6687 46.3275L56.664 70.8338C56.664 72.7402 54.642 73.9018 53.0234 73.0598L52.725 72.8782L39.997 63.9188L27.2755 72.8778C25.7167 73.9755 23.6025 72.9908 23.3592 71.1822L23.336 70.8338L23.3313 46.3275C19.2086 42.1195 16.6667 36.3565 16.6667 29.9998C16.6667 17.1132 27.1134 6.6665 40 6.6665ZM51.664 66.0168L51.6647 50.2128C48.233 52.1972 44.2494 53.3332 40 53.3332C35.7507 53.3332 31.7669 52.1972 28.3353 50.2128L28.336 66.0155L38.557 58.8175C39.3124 58.2855 40.2887 58.2188 41.0994 58.6175L41.4354 58.8172L51.664 66.0168ZM40 11.6665C29.8748 11.6665 21.6667 19.8746 21.6667 29.9998C21.6667 40.1252 29.8748 48.3332 40 48.3332C50.1254 48.3332 58.3334 40.1252 58.3334 29.9998C58.3334 19.8746 50.1254 11.6665 40 11.6665Z" fill="#212121"/>
</svg>
