<svg width="80" height="80" viewBox="0 0 80 80" fill="none" xmlns="http://www.w3.org/2000/svg">
<path d="M49.18 33.3333C52.4017 33.3333 55.0133 35.945 55.0133 39.1667V54.9967C55.0133 63.2827 48.296 70 40.01 70C31.7237 70 25.0064 63.2827 25.0064 54.9967V39.1667C25.0064 35.945 27.6181 33.3333 30.8398 33.3333H49.18ZM49.18 38.3333H30.8398C30.3795 38.3333 30.0064 38.7063 30.0064 39.1667V54.9967C30.0064 60.5213 34.485 65 40.01 65C45.5347 65 50.0133 60.5213 50.0133 54.9967V39.1667C50.0133 38.7063 49.6403 38.3333 49.18 38.3333ZM12.5 33.3333L23.7709 33.3302C22.6264 34.715 21.8808 36.4417 21.7104 38.334L12.5 38.3333C12.0398 38.3333 11.6667 38.7063 11.6667 39.1667V49.996C11.6667 54.6007 15.3995 58.3333 20.0041 58.3333C20.6708 58.3333 21.3191 58.255 21.9405 58.1073C22.2229 59.787 22.7385 61.389 23.4496 62.88C22.3526 63.1767 21.1966 63.3333 20.0041 63.3333C12.6381 63.3333 6.66666 57.362 6.66666 49.996V39.1667C6.66666 35.945 9.27832 33.3333 12.5 33.3333ZM56.249 33.3302L67.5 33.3333C70.7217 33.3333 73.3333 35.945 73.3333 39.1667V50C73.3333 57.3637 67.3637 63.3333 60 63.3333C58.812 63.3333 57.66 63.178 56.5637 62.8863C57.28 61.3923 57.796 59.7903 58.0833 58.1103C58.6973 58.2567 59.3397 58.3333 60 58.3333C64.6023 58.3333 68.3333 54.6023 68.3333 50V39.1667C68.3333 38.7063 67.9603 38.3333 67.5 38.3333L58.3093 38.334C58.139 36.4417 57.3933 34.715 56.249 33.3302ZM40 10C45.523 10 50 14.4772 50 20C50 25.5228 45.523 30 40 30C34.477 30 30 25.5228 30 20C30 14.4772 34.477 10 40 10ZM61.6667 13.3333C66.269 13.3333 70 17.0643 70 21.6667C70 26.269 66.269 30 61.6667 30C57.0643 30 53.3333 26.269 53.3333 21.6667C53.3333 17.0643 57.0643 13.3333 61.6667 13.3333ZM18.3333 13.3333C22.9357 13.3333 26.6667 17.0643 26.6667 21.6667C26.6667 26.269 22.9357 30 18.3333 30C13.731 30 9.99999 26.269 9.99999 21.6667C9.99999 17.0643 13.731 13.3333 18.3333 13.3333ZM40 15C37.2387 15 35 17.2386 35 20C35 22.7614 37.2387 25 40 25C42.7613 25 45 22.7614 45 20C45 17.2386 42.7613 15 40 15ZM61.6667 18.3333C59.8257 18.3333 58.3333 19.8257 58.3333 21.6667C58.3333 23.5076 59.8257 25 61.6667 25C63.5077 25 65 23.5076 65 21.6667C65 19.8257 63.5077 18.3333 61.6667 18.3333ZM18.3333 18.3333C16.4924 18.3333 15 19.8257 15 21.6667C15 23.5076 16.4924 25 18.3333 25C20.1743 25 21.6667 23.5076 21.6667 21.6667C21.6667 19.8257 20.1743 18.3333 18.3333 18.3333Z" fill="#212121"/>
</svg>
