<svg width="48" height="48" viewBox="0 0 48 48" fill="none" xmlns="http://www.w3.org/2000/svg">
<path d="M24 4C35.0456 4 44 12.9543 44 24C44 35.0456 35.0456 44 24 44C12.9543 44 4 35.0456 4 24C4 12.9543 12.9543 4 24 4ZM24 7C14.6112 7 7 14.6112 7 24C7 33.3888 14.6112 41 24 41C33.3888 41 41 33.3888 41 24C41 14.6112 33.3888 7 24 7ZM24 14C24.8284 14 25.5 14.6716 25.5 15.5V22.5H32.5C33.3284 22.5 34 23.1716 34 24C34 24.8284 33.3284 25.5 32.5 25.5H25.5V32.5C25.5 33.3284 24.8284 34 24 34C23.1716 34 22.5 33.3284 22.5 32.5V25.5H15.5C14.6716 25.5 14 24.8284 14 24C14 23.1716 14.6716 22.5 15.5 22.5H22.5V15.5C22.5 14.6716 23.1716 14 24 14Z" fill="white"/>
</svg>
