<svg width="98" height="99" viewBox="0 0 98 99" fill="none" xmlns="http://www.w3.org/2000/svg">
<circle cx="49" cy="49" r="49" fill="#F8BD1D"/>
<path d="M42.8387 43.7744C43.3918 41.9804 44.4498 40.4314 46.0127 39.1273C47.6163 37.8358 49.201 36.8956 50.7667 36.3067C52.3449 35.6771 53.8714 34.8529 55.3464 33.8342C56.862 32.8281 57.8273 31.6523 58.2421 30.3068C58.6821 28.8797 58.5322 27.628 57.7925 26.5517C57.0528 25.4753 55.8063 24.6668 54.0531 24.1263C50.6281 23.0704 47.6428 24.1369 45.097 27.3257L39.1623 20.9419C41.3157 18.3018 43.9689 16.5749 47.122 15.761C50.3284 14.919 53.5829 15.007 56.8855 16.0252C60.5958 17.1691 63.4634 19.2364 65.4882 22.227C67.5663 25.1894 68.0271 28.5461 66.8707 32.2973C66.3427 34.0097 65.4855 35.4867 64.2991 36.7283C63.1534 37.9824 61.9075 38.9824 60.5614 39.7282C59.2685 40.4459 57.9679 41.1165 56.6595 41.74C55.4044 42.3353 54.259 43.0091 53.2234 43.7614C52.2286 44.5262 51.5803 45.3979 51.2787 46.3765L42.8387 43.7744ZM46.5235 59.8453C45.1899 60.5504 43.8096 60.683 42.3825 60.243C40.9555 59.803 39.8894 58.9163 39.1843 57.5827C38.4793 56.2491 38.3467 54.8688 38.7867 53.4417C39.2266 52.0147 40.1134 50.9486 41.447 50.2436C42.7806 49.5385 44.1609 49.4059 45.5879 49.8459C47.015 50.2859 48.0811 51.1726 48.7861 52.5062C49.4912 53.8398 49.6237 55.2201 49.1838 56.6472C48.7438 58.0742 47.857 59.1403 46.5235 59.8453Z" fill="#151515"/>
<path d="M57.3293 82.5626C57.5367 81.8898 57.9334 81.309 58.5195 80.8199C59.1209 80.3356 59.7152 79.983 60.3023 79.7622C60.8941 79.5261 61.4666 79.217 62.0197 78.835C62.588 78.4577 62.95 78.0168 63.1056 77.5122C63.2706 76.9771 63.2144 76.5077 62.937 76.1041C62.6596 75.7004 62.1921 75.3973 61.5347 75.1946C60.2503 74.7986 59.1308 75.1985 58.1761 76.3943L55.9506 74.0004C56.7582 73.0104 57.7531 72.3628 58.9355 72.0576C60.1379 71.7418 61.3584 71.7748 62.5968 72.1566C63.9882 72.5856 65.0635 73.3608 65.8228 74.4823C66.6021 75.5932 66.775 76.852 66.3413 78.2587C66.1433 78.9008 65.8218 79.4547 65.3769 79.9203C64.9473 80.3906 64.4801 80.7656 63.9753 81.0453C63.4905 81.3144 63.0027 81.5659 62.5121 81.7997C62.0414 82.0229 61.6119 82.2756 61.2236 82.5577C60.8505 82.8445 60.6074 83.1714 60.4943 83.5384L57.3293 82.5626ZM58.7111 88.5892C58.211 88.8536 57.6934 88.9033 57.1582 88.7383C56.6231 88.5733 56.2233 88.2408 55.9589 87.7407C55.6945 87.2406 55.6448 86.723 55.8098 86.1878C55.9748 85.6527 56.3073 85.2529 56.8074 84.9885C57.3075 84.7241 57.8251 84.6744 58.3603 84.8394C58.8954 85.0044 59.2952 85.3369 59.5596 85.837C59.824 86.3371 59.8737 86.8547 59.7087 87.3899C59.5437 87.925 59.2112 88.3248 58.7111 88.5892Z" fill="#151515"/>
</svg>
