<svg width="80" height="80" viewBox="0 0 80 80" fill="none" xmlns="http://www.w3.org/2000/svg">
<path d="M10 19.1665C10 17.7858 11.1193 16.6665 12.5 16.6665C21.378 16.6665 30.0266 13.5216 38.5 7.1665C39.389 6.49984 40.611 6.49984 41.5 7.1665C49.9733 13.5216 58.622 16.6665 67.5 16.6665C68.8807 16.6665 70 17.7858 70 19.1665V36.6665C70 53.3372 60.1413 65.5855 40.9163 73.1592C40.3273 73.3912 39.6727 73.3912 39.0837 73.1592C19.8585 65.5855 10 53.3372 10 36.6665V19.1665ZM15 21.5929V36.6665C15 50.8518 23.1779 61.2628 40 68.1395C56.822 61.2628 65 50.8518 65 36.6665V21.5929C56.409 21.086 48.064 17.9608 40 12.2592C31.9361 17.9608 23.5912 21.086 15 21.5929Z" fill="#212121"/>
</svg>
