<svg width="80" height="80" viewBox="0 0 80 80" fill="none" xmlns="http://www.w3.org/2000/svg">
<path d="M29.9305 11.9C29.587 10.5628 28.2205 9.74185 26.8785 10.0665C25.7782 10.3327 25.0359 11.2865 24.9937 12.3585C18.4942 14.4844 14.6406 17.865 12.4769 21.7381C10.4408 25.3828 10.0618 29.1924 10.0083 32.1137L8.32015 34.2241C5.58512 37.6434 6.34855 42.6688 9.97569 45.1218L40.2007 65.5611C44.4737 68.4508 49.5137 69.9948 54.672 69.9948H62.033C68.2783 69.9948 73.341 64.9321 73.341 58.6871C73.341 52.3184 68.007 47.9358 63.393 45.7111C62.0117 45.0451 60.867 44.1748 60.106 43.0571L51.4973 28.242C52.6457 27.9409 53.4373 26.855 53.3237 25.6338C53.1957 24.2621 51.974 23.2391 50.5947 23.3489C40.762 24.1315 31.9266 19.6691 29.9305 11.9ZM45.7433 28.2922L55.8237 45.6394C55.849 45.6824 55.8753 45.7248 55.9027 45.7664C57.3043 47.8768 59.2813 49.2798 61.2217 50.2151C63.784 51.4504 65.8967 53.1094 67.1377 54.9888H54.5693C52.4103 54.9888 50.3003 54.3438 48.5107 53.1364L42.3383 48.9724L43.7493 48.1574C46.5396 46.5468 47.4953 42.9791 45.8847 40.1891L43.611 36.2511C42.0003 33.4611 38.4327 32.5051 35.6427 34.1161L27.3839 38.8841L23.3467 36.1604L23.7467 35.9298C26.5367 34.3188 27.4926 30.7512 25.8818 27.9612L21.0979 19.6753C22.5385 18.7087 24.3446 17.8247 26.6178 17.0879C30.2263 23.9003 37.8243 27.5907 45.7433 28.2922ZM18.7351 33.0496L15.081 30.5845C15.2406 28.4566 15.6877 26.2428 16.8419 24.1766C17.0102 23.8755 17.1958 23.5734 17.401 23.272L21.5517 30.4612C21.7818 30.8598 21.6452 31.3694 21.2467 31.5996L18.7351 33.0496ZM37.7267 45.8614L31.9955 41.9951L38.1427 38.4461C38.541 38.2161 39.0507 38.3524 39.281 38.7511L41.5543 42.6891C41.7847 43.0878 41.648 43.5974 41.2493 43.8274L37.7267 45.8614ZM12.2248 37.3474L13.6058 35.6208L45.7143 57.2814C48.3303 59.0461 51.4137 59.9888 54.5693 59.9888H68.2067C67.6067 62.8481 65.0707 64.9948 62.033 64.9948H54.672C50.512 64.9948 46.4477 63.7494 43.0017 61.4194L12.7766 40.9798C11.5676 40.1624 11.3131 38.4871 12.2248 37.3474Z" fill="#212121"/>
</svg>
