<svg width="48" height="48" viewBox="0 0 48 48" fill="none" xmlns="http://www.w3.org/2000/svg">
<path d="M21 10C21 11.2823 21.8044 12.3768 22.9364 12.806C23.6348 12.9759 24.3644 12.976 25.063 12.8062C26.195 12.3771 27 11.2825 27 10C27 8.34314 25.6568 7 24 7C22.343 7 21 8.34314 21 10ZM18.0524 10.7975C18.0178 10.5366 17.9999 10.2704 17.9999 10C17.9999 6.6863 20.6862 4 24 4C27.3136 4 30 6.6863 30 10C30 10.2704 29.982 10.5367 29.9474 10.7977L35.7004 8.35568C37.9866 7.3852 40.636 8.4444 41.6232 10.7235C42.6138 13.0105 41.5552 15.6582 39.2612 16.632L32.005 19.712V27.1464L35.7536 38.0334C36.5628 40.3832 35.3138 42.9442 32.9638 43.7532C30.614 44.5624 28.0532 43.3134 27.244 40.9636L24.0002 31.543L20.7566 40.963C19.9475 43.313 17.3866 44.562 15.0368 43.7528C12.6869 42.9438 11.4378 40.3828 12.247 38.033L16.0049 27.119V19.7162L8.739 16.632C6.44484 15.6582 5.38636 13.0105 6.37692 10.7235C7.36408 8.4444 10.0135 7.3852 12.2998 8.35568L18.0524 10.7975ZM22.044 15.674C21.7138 15.5848 21.3882 15.4725 21.0696 15.3373L11.1276 11.1172C10.3586 10.7908 9.46184 11.1493 9.1298 11.9159C8.80116 12.6746 9.15006 13.5474 9.9112 13.8705L17.4818 17.084C18.4052 17.476 19.0049 18.382 19.0049 19.3852V27.2028C19.0049 27.4798 18.9589 27.7548 18.8687 28.0166L15.0835 39.0096C14.8138 39.793 15.2302 40.6466 16.0135 40.9162C16.7968 41.186 17.6504 40.7696 17.9201 39.9864L22.1368 27.7404C22.7478 25.9642 25.255 25.9712 25.8636 27.7398L30.0806 39.9868C30.3502 40.7702 31.2038 41.1864 31.9872 40.9168C32.7704 40.647 33.1868 39.7934 32.917 39.0102L29.1412 28.044C29.051 27.782 29.005 27.507 29.005 27.23V19.3811C29.005 18.3779 29.6046 17.4718 30.5282 17.0798L38.089 13.8705C38.85 13.5474 39.199 12.6746 38.8704 11.9159C38.5382 11.1493 37.6416 10.7908 36.8724 11.1172L26.9306 15.3373C26.6114 15.4727 26.2854 15.5851 25.9546 15.6744C25.342 15.8854 24.6844 16 24 16C23.315 16 22.657 15.8853 22.044 15.674Z" fill="white"/>
</svg>
